# xmcd CD database file
#
# Track frame offsets:
#	150
#	20340
#	41008
#	72602
#	332550
#
# Disc length: 4440 seconds
#
# Revision: 1
# Processed by: cddbd v1.5PL3 Copyright (c) Steve Scherf et al.
# Submitted via: CDex 1.51
#
DISCID=41115605
DTITLE=TUBE - Let's go to the sea 〜OASIS〜
DYEAR=2003
DGENRE=JPop
TTITLE0=Let's go to the sea 〜OASIS〜
TTITLE1=Summer Breeze
TTITLE2=Let's go to the sea 〜OASIS〜(Instrumental)
TTITLE3=data
TTITLE4=data
EXTD=YEAR: 2003
EXTT0=
EXTT1=
EXTT2=
EXTT3=
EXTT4=
PLAYORDER=
